{
	"asset":{
		"copyright":"GNU GPL v3",
		"generator":"Khronos glTF Blender I/O v4.0.44",
		"version":"2.0"
	},
	"scene":0,
	"scenes":[
		{
			"name":"Scene",
			"nodes":[
				1
			]
		}
	],
	"nodes":[
		{
			"mesh":0,
			"name":"Cage",
			"translation":[
				0,
				5,
				0
			]
		},
		{
			"children":[
				0
			],
			"mesh":1,
			"name":"Base"
		}
	],
	"meshes":[
		{
			"name":"Cage Mesh",
			"primitives":[
				{
					"attributes":{
						"COLOR_0":0,
						"POSITION":1,
						"NORMAL":2
					},
					"indices":3
				}
			]
		},
		{
			"name":"Base Mesh",
			"primitives":[
				{
					"attributes":{
						"COLOR_0":4,
						"POSITION":5,
						"NORMAL":6
					},
					"indices":7
				}
			]
		}
	],
	"accessors":[
		{
			"bufferView":0,
			"componentType":5123,
			"count":664,
			"normalized":true,
			"type":"VEC4"
		},
		{
			"bufferView":1,
			"componentType":5126,
			"count":664,
			"type":"VEC3"
		},
		{
			"bufferView":2,
			"componentType":5126,
			"count":664,
			"type":"VEC3"
		},
		{
			"bufferView":3,
			"componentType":5123,
			"count":1020,
			"type":"SCALAR"
		},
		{
			"bufferView":4,
			"componentType":5123,
			"count":480,
			"normalized":true,
			"type":"VEC4"
		},
		{
			"bufferView":5,
			"componentType":5126,
			"count":480,
			"max":[
				2.1666667461395264,
				3.5,
				2.1666667461395264
			],
			"min":[
				-2.1666667461395264,
				0,
				-2.1666667461395264
			],
			"type":"VEC3"
		},
		{
			"bufferView":6,
			"componentType":5126,
			"count":480,
			"type":"VEC3"
		},
		{
			"bufferView":7,
			"componentType":5123,
			"count":816,
			"type":"SCALAR"
		}
	],
	"bufferViews":[
		{
			"buffer":0,
			"byteLength":5312,
			"byteOffset":0,
			"target":34962
		},
		{
			"buffer":0,
			"byteLength":7968,
			"byteOffset":5312,
			"target":34962
		},
		{
			"buffer":0,
			"byteLength":7968,
			"byteOffset":13280,
			"target":34962
		},
		{
			"buffer":0,
			"byteLength":2040,
			"byteOffset":21248,
			"target":34963
		},
		{
			"buffer":0,
			"byteLength":3840,
			"byteOffset":23288,
			"target":34962
		},
		{
			"buffer":0,
			"byteLength":5760,
			"byteOffset":27128,
			"target":34962
		},
		{
			"buffer":0,
			"byteLength":5760,
			"byteOffset":32888,
			"target":34962
		},
		{
			"buffer":0,
			"byteLength":1632,
			"byteOffset":38648,
			"target":34963
		}
	],
	"buffers":[
		{
			"byteLength":40280,
			"uri":"portal.bin"
		}
	]
}
