{
	"asset":{
		"copyright":"GNU GPL v3",
		"generator":"Khronos glTF Blender I/O v4.0.44",
		"version":"2.0"
	},
	"scene":0,
	"scenes":[
		{
			"name":"Scene",
			"nodes":[
				3
			]
		}
	],
	"nodes":[
		{
			"mesh":0,
			"name":"ArmInner"
		},
		{
			"mesh":1,
			"name":"ArmOuter"
		},
		{
			"mesh":2,
			"name":"Thruster"
		},
		{
			"children":[
				0,
				1,
				2
			],
			"mesh":3,
			"name":"Base"
		}
	],
	"meshes":[
		{
			"name":"ArmInner",
			"primitives":[
				{
					"attributes":{
						"COLOR_0":0,
						"POSITION":1,
						"NORMAL":2
					},
					"indices":3
				}
			]
		},
		{
			"name":"ArmOuter",
			"primitives":[
				{
					"attributes":{
						"COLOR_0":4,
						"POSITION":5,
						"NORMAL":6
					},
					"indices":7
				}
			]
		},
		{
			"name":"Thruster",
			"primitives":[
				{
					"attributes":{
						"COLOR_0":8,
						"POSITION":9,
						"NORMAL":10
					},
					"indices":11
				}
			]
		},
		{
			"name":"Base",
			"primitives":[
				{
					"attributes":{
						"COLOR_0":12,
						"POSITION":13,
						"NORMAL":14
					},
					"indices":15
				}
			]
		}
	],
	"accessors":[
		{
			"bufferView":0,
			"componentType":5123,
			"count":120,
			"normalized":true,
			"type":"VEC4"
		},
		{
			"bufferView":1,
			"componentType":5126,
			"count":120,
			"max":[
				0.5000004768371582,
				16.499998092651367,
				3.5
			],
			"min":[
				-0.5000009536743164,
				3.499999761581421,
				-3.5
			],
			"type":"VEC3"
		},
		{
			"bufferView":2,
			"componentType":5126,
			"count":120,
			"type":"VEC3"
		},
		{
			"bufferView":3,
			"componentType":5123,
			"count":168,
			"type":"SCALAR"
		},
		{
			"bufferView":4,
			"componentType":5123,
			"count":120,
			"normalized":true,
			"type":"VEC4"
		},
		{
			"bufferView":5,
			"componentType":5126,
			"count":120,
			"max":[
				5.5,
				12.5,
				0.5000004768371582
			],
			"min":[
				-5.5,
				1.5,
				-0.5
			],
			"type":"VEC3"
		},
		{
			"bufferView":6,
			"componentType":5126,
			"count":120,
			"type":"VEC3"
		},
		{
			"bufferView":7,
			"componentType":5123,
			"count":168,
			"type":"SCALAR"
		},
		{
			"bufferView":8,
			"componentType":5123,
			"count":413,
			"normalized":true,
			"type":"VEC4"
		},
		{
			"bufferView":9,
			"componentType":5126,
			"count":413,
			"max":[
				5.000000476837158,
				2,
				5
			],
			"min":[
				-5,
				-3,
				-5
			],
			"type":"VEC3"
		},
		{
			"bufferView":10,
			"componentType":5126,
			"count":413,
			"type":"VEC3"
		},
		{
			"bufferView":11,
			"componentType":5123,
			"count":480,
			"type":"SCALAR"
		},
		{
			"bufferView":12,
			"componentType":5123,
			"count":2040,
			"normalized":true,
			"type":"VEC4"
		},
		{
			"bufferView":13,
			"componentType":5126,
			"count":2040,
			"max":[
				9.5,
				8,
				9.5
			],
			"min":[
				-9.5,
				0,
				-9.5
			],
			"type":"VEC3"
		},
		{
			"bufferView":14,
			"componentType":5126,
			"count":2040,
			"type":"VEC3"
		},
		{
			"bufferView":15,
			"componentType":5123,
			"count":3336,
			"type":"SCALAR"
		}
	],
	"bufferViews":[
		{
			"buffer":0,
			"byteLength":960,
			"byteOffset":0,
			"target":34962
		},
		{
			"buffer":0,
			"byteLength":1440,
			"byteOffset":960,
			"target":34962
		},
		{
			"buffer":0,
			"byteLength":1440,
			"byteOffset":2400,
			"target":34962
		},
		{
			"buffer":0,
			"byteLength":336,
			"byteOffset":3840,
			"target":34963
		},
		{
			"buffer":0,
			"byteLength":960,
			"byteOffset":4176,
			"target":34962
		},
		{
			"buffer":0,
			"byteLength":1440,
			"byteOffset":5136,
			"target":34962
		},
		{
			"buffer":0,
			"byteLength":1440,
			"byteOffset":6576,
			"target":34962
		},
		{
			"buffer":0,
			"byteLength":336,
			"byteOffset":8016,
			"target":34963
		},
		{
			"buffer":0,
			"byteLength":3304,
			"byteOffset":8352,
			"target":34962
		},
		{
			"buffer":0,
			"byteLength":4956,
			"byteOffset":11656,
			"target":34962
		},
		{
			"buffer":0,
			"byteLength":4956,
			"byteOffset":16612,
			"target":34962
		},
		{
			"buffer":0,
			"byteLength":960,
			"byteOffset":21568,
			"target":34963
		},
		{
			"buffer":0,
			"byteLength":16320,
			"byteOffset":22528,
			"target":34962
		},
		{
			"buffer":0,
			"byteLength":24480,
			"byteOffset":38848,
			"target":34962
		},
		{
			"buffer":0,
			"byteLength":24480,
			"byteOffset":63328,
			"target":34962
		},
		{
			"buffer":0,
			"byteLength":6672,
			"byteOffset":87808,
			"target":34963
		}
	],
	"buffers":[
		{
			"byteLength":94480,
			"uri":"satellite.bin"
		}
	]
}
