{
	"asset":{
		"generator":"Khronos glTF Blender I/O v4.0.44",
		"version":"2.0"
	},
	"scene":0,
	"scenes":[
		{
			"name":"Scene",
			"nodes":[
				0
			]
		}
	],
	"nodes":[
		{
			"mesh":0,
			"name":"Spire"
		}
	],
	"meshes":[
		{
			"name":"Spire",
			"primitives":[
				{
					"attributes":{
						"POSITION":0,
						"NORMAL":1
					},
					"indices":2
				}
			]
		}
	],
	"accessors":[
		{
			"bufferView":0,
			"componentType":5126,
			"count":61,
			"max":[
				1,
				4,
				1
			],
			"min":[
				-1,
				0,
				-1
			],
			"type":"VEC3"
		},
		{
			"bufferView":1,
			"componentType":5126,
			"count":61,
			"type":"VEC3"
		},
		{
			"bufferView":2,
			"componentType":5123,
			"count":78,
			"type":"SCALAR"
		}
	],
	"bufferViews":[
		{
			"buffer":0,
			"byteLength":732,
			"byteOffset":0,
			"target":34962
		},
		{
			"buffer":0,
			"byteLength":732,
			"byteOffset":732,
			"target":34962
		},
		{
			"buffer":0,
			"byteLength":156,
			"byteOffset":1464,
			"target":34963
		}
	],
	"buffers":[
		{
			"byteLength":1620,
			"uri":"spires.bin"
		}
	]
}
