{
	"asset":{
		"copyright":"GNU GPL v3",
		"generator":"Khronos glTF Blender I/O v4.0.44",
		"version":"2.0"
	},
	"scene":0,
	"scenes":[
		{
			"name":"Scene",
			"nodes":[
				0,
				1
			]
		}
	],
	"nodes":[
		{
			"mesh":0,
			"name":"SpireSmall1"
		},
		{
			"mesh":1,
			"name":"SpireSmall2",
			"translation":[
				3,
				0,
				0
			]
		}
	],
	"meshes":[
		{
			"name":"SpireSmall1",
			"primitives":[
				{
					"attributes":{
						"POSITION":0,
						"NORMAL":1
					},
					"indices":2
				}
			]
		},
		{
			"name":"SpireSmall2",
			"primitives":[
				{
					"attributes":{
						"POSITION":3,
						"NORMAL":4
					},
					"indices":5
				}
			]
		}
	],
	"accessors":[
		{
			"bufferView":0,
			"componentType":5126,
			"count":70,
			"max":[
				1,
				4,
				1
			],
			"min":[
				-1,
				0,
				-1
			],
			"type":"VEC3"
		},
		{
			"bufferView":1,
			"componentType":5126,
			"count":70,
			"type":"VEC3"
		},
		{
			"bufferView":2,
			"componentType":5123,
			"count":90,
			"type":"SCALAR"
		},
		{
			"bufferView":3,
			"componentType":5126,
			"count":37,
			"max":[
				1,
				2,
				1
			],
			"min":[
				-1,
				0,
				-1
			],
			"type":"VEC3"
		},
		{
			"bufferView":4,
			"componentType":5126,
			"count":37,
			"type":"VEC3"
		},
		{
			"bufferView":5,
			"componentType":5123,
			"count":42,
			"type":"SCALAR"
		}
	],
	"bufferViews":[
		{
			"buffer":0,
			"byteLength":840,
			"byteOffset":0,
			"target":34962
		},
		{
			"buffer":0,
			"byteLength":840,
			"byteOffset":840,
			"target":34962
		},
		{
			"buffer":0,
			"byteLength":180,
			"byteOffset":1680,
			"target":34963
		},
		{
			"buffer":0,
			"byteLength":444,
			"byteOffset":1860,
			"target":34962
		},
		{
			"buffer":0,
			"byteLength":444,
			"byteOffset":2304,
			"target":34962
		},
		{
			"buffer":0,
			"byteLength":84,
			"byteOffset":2748,
			"target":34963
		}
	],
	"buffers":[
		{
			"byteLength":2832,
			"uri":"spires.bin"
		}
	]
}
