{
	"asset":{
		"copyright":"GNU GPL v3",
		"generator":"Khronos glTF Blender I/O v4.0.44",
		"version":"2.0"
	},
	"scene":0,
	"scenes":[
		{
			"name":"Scene",
			"nodes":[
				0
			]
		}
	],
	"nodes":[
		{
			"mesh":0,
			"name":"Spire"
		}
	],
	"meshes":[
		{
			"name":"Spire",
			"primitives":[
				{
					"attributes":{
						"COLOR_0":0,
						"POSITION":1,
						"NORMAL":2
					},
					"indices":3
				}
			]
		}
	],
	"accessors":[
		{
			"bufferView":0,
			"componentType":5123,
			"count":67,
			"normalized":true,
			"type":"VEC4"
		},
		{
			"bufferView":1,
			"componentType":5126,
			"count":67,
			"max":[
				1,
				4,
				1
			],
			"min":[
				-1,
				0,
				-1
			],
			"type":"VEC3"
		},
		{
			"bufferView":2,
			"componentType":5126,
			"count":67,
			"type":"VEC3"
		},
		{
			"bufferView":3,
			"componentType":5123,
			"count":84,
			"type":"SCALAR"
		}
	],
	"bufferViews":[
		{
			"buffer":0,
			"byteLength":536,
			"byteOffset":0,
			"target":34962
		},
		{
			"buffer":0,
			"byteLength":804,
			"byteOffset":536,
			"target":34962
		},
		{
			"buffer":0,
			"byteLength":804,
			"byteOffset":1340,
			"target":34962
		},
		{
			"buffer":0,
			"byteLength":168,
			"byteOffset":2144,
			"target":34963
		}
	],
	"buffers":[
		{
			"byteLength":2312,
			"uri":"spires.bin"
		}
	]
}
